<?xml version="1.0" encoding="utf-8"?>
<!-- Generator: Adobe Illustrator 15.0.0, SVG Export Plug-In . SVG Version: 6.00 Build 0)  -->
<!DOCTYPE svg PUBLIC "-//W3C//DTD SVG 1.1//EN" "http://www.w3.org/Graphics/SVG/1.1/DTD/svg11.dtd">
<svg version="1.1" id="Layer_1" xmlns="http://www.w3.org/2000/svg" xmlns:xlink="http://www.w3.org/1999/xlink" x="0px" y="0px"
	 width="500px" height="471.655px" viewBox="-95.4 -84.8 500 471.655" enable-background="new -95.4 -84.8 500 471.655"
	 xml:space="preserve">
<g>
	<ellipse fill="none" stroke="#8D8D8D" cx="154.35" cy="105.316" rx="59.939" ry="60.037"/>
	<ellipse fill="none" stroke="#8D8D8D" cx="154.35" cy="385.488" rx="59.939" ry="60.036"/>
	<ellipse fill="none" stroke="#8D8D8D" cx="154.35" cy="385.487" rx="19.979" ry="20.013"/>
	<rect x="94.411" y="-84.8" fill="none" stroke="#8D8D8D" width="119.879" height="190.116"/>
	<rect x="74.43" y="-84.8" fill="none" stroke="#8D8D8D" width="159.841" height="190.116"/>
	<line fill="none" stroke="#8D8D8D" x1="-65.431" y1="60.289" x2="-65.431" y2="-84.8"/>
	<line fill="none" stroke="#8D8D8D" x1="374.129" y1="60.289" x2="374.129" y2="-84.8"/>
	<line fill="none" stroke="#8D8D8D" x1="-95.4" y1="195.372" x2="-65.431" y2="195.372"/>
	<line fill="none" stroke="#8D8D8D" x1="374.129" y1="195.372" x2="404.1" y2="195.372"/>
	<line fill="none" stroke="#8D8D8D" x1="124.381" y1="-44.775" x2="184.321" y2="-44.775"/>
	<ellipse fill="none" stroke="#8D8D8D" cx="154.35" cy="-32.268" rx="9.989" ry="10.007"/>
	<path fill="none" stroke="#8D8D8D" d="M-65.431,60.289c49.95,193.248,389.61,193.248,439.56,0"/>
	<path fill="none" stroke="#8D8D8D" d="M114.39-32.267c0,49.704,79.92,49.704,79.92,0"/>
	<rect x="-95.4" y="-84.8" fill="none" stroke="#8D8D8D" width="499.5" height="470.287"/>
</g>
</svg>
