<svg width="320.20000000000005" height="302.04800000000006"><g class="court" fill="none" stroke="rgb(141,141,141)"><circle cx="159.60000000000002" cy="121.29600000000002" r="38.304"></circle><circle cx="159.60000000000002" cy="300.04800000000006" r="38.304"></circle><circle cx="159.60000000000002" cy="300.04800000000006" r="12.768000000000002"></circle><rect x="121.29600000000002" y="0" width="76.608" height="121.29600000000002" class="greyFill"></rect><rect x="108.52800000000002" y="0" width="102.14400000000002" height="121.29600000000002"></rect><line x1="19.152" y1="92.56800000000001" x2="19.152" y2="0"></line><line x1="300.048" y1="92.56800000000001" x2="300.048" y2="0"></line><line x1="0" y1="178.75200000000004" x2="19.152" y2="178.75200000000004"></line><line x1="300.048" y1="178.75200000000004" x2="319.20000000000005" y2="178.75200000000004"></line><line x1="140.448" y1="25.536000000000005" x2="178.75200000000004" y2="25.536000000000005"></line><circle cx="159.60000000000002" cy="33.516000000000005" r="6.384000000000001"></circle><path d="M19.152 92.56800000000001 C 51.07200000000001 215.86187050359717, 268.12800000000004 215.86187050359717, 300.048 92.56800000000001"></path><path d="M134.06400000000002 33.516000000000005 C 134.06400000000002 65.22782608695654, 185.13600000000002 65.22782608695654, 185.13600000000002 33.516000000000005"></path><rect x="0" y="0" width="319.20000000000005" height="300.04800000000006"></rect></g></svg>